<svg xmlns="http://www.w3.org/2000/svg" xmlns:xlink="http://www.w3.org/1999/xlink" width="50cm" height="50cm" viewBox="0 0 1417.323 1417.323">
  <defs>
    <linearGradient id="a" data-name="Dégradé sans nom 36" x1="169.38" y1="801.015" x2="1153.452" y2="801.015" gradientUnits="userSpaceOnUse">
      <stop offset="0.006" stop-color="#187abf"/>
      <stop offset="1" stop-color="#3a59a5"/>
    </linearGradient>
    <linearGradient id="b" data-name="Dégradé sans nom 8" x1="64.705" y1="517.018" x2="1272.849" y2="517.018" gradientUnits="userSpaceOnUse">
      <stop offset="0.006" stop-color="#98b5c5"/>
      <stop offset="1" stop-color="#5ba5d7"/>
    </linearGradient>
    <linearGradient id="c" data-name="Dégradé sans nom 21" x1="64.705" y1="425.395" x2="1272.849" y2="425.395" xlink:href="#b"/>
    <linearGradient id="d" data-name="Dégradé sans nom 54" x1="181.031" y1="850.534" x2="229.727" y2="850.534" gradientUnits="userSpaceOnUse">
      <stop offset="0" stop-color="#f5ee8c"/>
      <stop offset="1" stop-color="#d49847"/>
    </linearGradient>
    <linearGradient id="e" x1="229.727" y1="431.283" x2="382.675" y2="431.283" xlink:href="#d"/>
    <linearGradient id="f" x1="349.988" y1="839.876" x2="1041.155" y2="839.876" xlink:href="#d"/>
    <linearGradient id="g" x1="903.905" y1="460.115" x2="1038.741" y2="460.115" xlink:href="#d"/>
  </defs>
  <title>Logo _ LEVIATEK</title>
  <g>
    <path d="M555.748,371.566c-108.157-60.838-227.663-33.363-323.923,87.7h0c-39.007,56.43-118.527,415.423.062,581.452s355.593,263.6,621.976,202.74,299.589-322.482,299.589-322.482-331.237,223.1-457.881,0,137.256-427.65,137.256-427.65L951.04,427.682q-12.13-7.755-25-17.1C728.82,266.918,748.945,480.24,555.748,371.566Z" fill="url(#a)"/>
    <path d="M1341.421,589.142c-52,115.451-117.548,230.156-309.927,298.2-206.482,73.03-216.137-139.442-194-199.972,15.948-43.606,78.369-82.266,112.03-100.478l32.912-141.051c-10.028-5.163-20.487-11.182-31.4-18.157L832.827,493.321s-263.9,204.553-137.256,427.65,457.881,0,457.881,0-33.206,261.621-299.589,322.482-503.387-36.711-621.976-202.74-39.069-525.022-.062-581.452h0C166,542.045,111.05,668.6,78.034,840.612c60.5,292.874,319.866,513.04,630.662,513.04,355.666,0,643.99-288.324,643.99-643.991A647.477,647.477,0,0,0,1341.421,589.142Z" fill="#187abf"/>
    <path d="M507.448,215.8c87.543,62.582,138.441,89.64,262.628,106.465S903.905,198.494,903.905,198.494s4.919,40.076,134.836,36.224c40.065-1.188,60.294-13.7,69.118-30.442A641.234,641.234,0,0,0,708.7,65.671c-173.144,0-330.322,68.336-446.052,179.5C357.577,184.651,458.017,180.458,507.448,215.8Z" fill="#98b5c5"/>
    <path d="M555.748,371.566c193.2,108.674,173.072-104.648,370.295,39.012q12.876,9.38,25,17.1l40.936-22.73-9.54,40.887c153.317,78.932,205.228-43.387,205.228-43.387s63.282,20.476,85.185-3.586a647,647,0,0,0-164.99-194.59c-8.824,16.74-29.053,29.254-69.118,30.442-129.917,3.852-134.836-36.224-134.836-36.224s-9.642,140.592-133.829,123.767S594.991,278.378,507.448,215.8c-49.431-35.338-149.871-31.145-244.8,29.376-122,117.186-197.939,281.967-197.939,464.489A646.816,646.816,0,0,0,78.034,840.612C111.05,668.6,166,542.045,231.825,459.261,328.085,338.2,447.591,310.728,555.748,371.566Z" fill="url(#b)"/>
    <path d="M951.04,427.682c10.909,6.975,21.368,12.994,31.4,18.157l9.54-40.887Z" fill="url(#c)"/>
    <g>
      <path d="M229.727,780.1c-56.349,62.386-48.3,140.873-48.3,140.873S191.475,848.5,227.2,845.49C226.015,805.88,229.727,780.1,229.727,780.1Z" fill="url(#d)"/>
      <path d="M555.748,848.522c1.4,15.906,3.452,30.842,6.078,44.895,4.581,19.831,70.4-.621,70.4-.621C585.935,892.8,555.748,848.522,555.748,848.522Z" fill="#d49847"/>
      <path d="M229.727,460.115s58.043-24.8,77.321-3.847c41.084-35.981,75.627-48.477,75.627-48.477C318.276,381.629,229.727,460.115,229.727,460.115Z" fill="url(#e)"/>
      <path d="M1225.9,584.888s24.149-20.125,0-58.361-102.636-52.325-112.7-92.574-18.112-52.324-36.224-72.449S875.731,244.781,835.481,146.17c0,0-12.075,116.723,18.113,163.01,0,0-63.952-53.778-123.544-92.294S612.1,107.933,612.1,107.933s50.312,191.184,76.474,201.247c0,0-352.183-48.3-458.844,150.935,0,0,88.549-78.486,152.948-52.324,0,0-34.543,12.5-75.627,48.477-71.985,63.045-164.057,198.206-125.62,464.7,0,0-8.05-78.487,48.3-140.873,0,0-3.712,25.782-2.523,65.392,2.545,84.718,27.521,232.692,159.221,326.99C214.087,627.056,709.031,518.141,709.031,518.141c-11.4-64.734,37.9-98.275,37.9-98.275s-38.237,64.4-8.05,106.661c0,0,66.411,96.6,154.96,84.523,0,0-50.312,19.813-56.349,76.318,0,0,56.552-82.489,195.21-68.268,78.486,8.05,68.522,63.075,116.723,68.268,20.124,2.169,28.174-28.018,28.174-28.018s45.617,4.025,59.033-4.025S1225.9,584.888,1225.9,584.888ZM932.08,484.265l-28.175-48.3c74.462,14.088,134.836,48.3,134.836,48.3C990.442,466.152,932.08,484.265,932.08,484.265Z" fill="#d49847"/>
      <path d="M746.933,419.866s-49.306,33.541-37.9,98.275c0,0-494.944,108.915-322.606,654.339,77.06,55.175,190.675,91.957,357.7,86.952,117.059-10.767,270.267-98.319,294.617-285.634,14.114-108.576-36.319-126.313-82.271-121.507-.079.089-.162.167-.24.256,0,0,72.449,24.149,38.237,124.773-32.727,96.254-374.806,225.632-432.641-83.9-2.626-14.053-4.68-28.989-6.078-44.895,0,0,30.187,44.274,76.474,44.274,0,0-98.611-106.661-54.337-229.421s120.748-132.824,161-136.848C708.7,484.265,746.933,419.866,746.933,419.866Z" fill="url(#f)"/>
      <path d="M1038.741,973.8c-24.35,187.315-177.558,274.867-294.617,285.634,3.6-.108,7.207-.219,10.859-.366,299.858-12.075,311.932-283.758,307.908-350.17s48.3-148.923,124.773-175.085c0,0-110.686-12.075-152.948,98.611,0,0-48.044-14-78.246,19.869C1002.422,847.485,1052.855,865.222,1038.741,973.8Z" fill="#d49847"/>
      <path d="M932.08,484.265s58.362-18.113,106.661,0c0,0-60.374-34.212-134.836-48.3Z" fill="url(#g)"/>
    </g>
  </g>
</svg>
